<?xml version="1.0" encoding="UTF-8" standalone="no"?>
<!DOCTYPE svg PUBLIC "-//W3C//DTD SVG 1.1//EN"
 "http://www.w3.org/Graphics/SVG/1.1/DTD/svg11.dtd">
<!-- Generated by graphviz version 2.38.0 (20140413.2041)
 -->
<!-- Title: graphname Pages: 1 -->
<svg width="134pt" height="188pt"
 viewBox="0.00 0.00 134.00 188.00" xmlns="http://www.w3.org/2000/svg" xmlns:xlink="http://www.w3.org/1999/xlink">
<g id="graph0" class="graph" transform="scale(1 1) rotate(0) translate(4 184)">
<title>graphname</title>
<polygon fill="white" stroke="none" points="-4,4 -4,-184 130,-184 130,4 -4,4"/>
<!-- A -->
<g id="node1" class="node"><title>A</title>
<ellipse fill="none" stroke="black" cx="63" cy="-162" rx="27" ry="18"/>
<text text-anchor="middle" x="63" y="-157.8" font-family="Times,serif" font-size="14.00">A</text>
</g>
<!-- B -->
<g id="node2" class="node"><title>B</title>
<ellipse fill="none" stroke="black" cx="63" cy="-90" rx="27" ry="18"/>
<text text-anchor="middle" x="63" y="-85.8" font-family="Times,serif" font-size="14.00">B</text>
</g>
<!-- A&#45;&gt;B -->
<g id="edge1" class="edge"><title>A&#45;&gt;B</title>
<path fill="none" stroke="black" d="M63,-135.64C63,-130.063 63,-124.132 63,-118.476"/>
<ellipse fill="none" stroke="black" cx="63" cy="-139.697" rx="4" ry="4"/>
<polygon fill="black" stroke="black" points="66.5001,-118.104 63,-108.104 59.5001,-118.104 66.5001,-118.104"/>
</g>
<!-- C -->
<g id="node3" class="node"><title>C</title>
<ellipse fill="none" stroke="black" cx="27" cy="-18" rx="27" ry="18"/>
<text text-anchor="middle" x="27" y="-13.8" font-family="Times,serif" font-size="14.00">C</text>
</g>
<!-- B&#45;&gt;C -->
<g id="edge2" class="edge"><title>B&#45;&gt;C</title>
<path fill="none" stroke="black" d="M49.9905,-63.7037C46.3934,-56.7093 42.5076,-49.1536 38.9724,-42.2797"/>
<polygon fill="black" stroke="black" points="46.9643,-65.4725 54.6504,-72.7646 53.1894,-62.271 46.9643,-65.4725"/>
<ellipse fill="none" stroke="black" cx="37.1337" cy="-38.7045" rx="4.00002" ry="4.00002"/>
</g>
<!-- D -->
<g id="node4" class="node"><title>D</title>
<ellipse fill="none" stroke="black" cx="99" cy="-18" rx="27" ry="18"/>
<text text-anchor="middle" x="99" y="-13.8" font-family="Times,serif" font-size="14.00">D</text>
</g>
<!-- B&#45;&gt;D -->
<g id="edge3" class="edge"><title>B&#45;&gt;D</title>
<path fill="none" stroke="black" d="M76.0095,-63.7037C79.6066,-56.7093 83.4924,-49.1536 87.0276,-42.2797"/>
<polygon fill="black" stroke="black" points="72.8106,-62.271 71.3496,-72.7646 79.0357,-65.4725 72.8106,-62.271"/>
<ellipse fill="none" stroke="black" cx="88.8663" cy="-38.7045" rx="4.00002" ry="4.00002"/>
</g>
</g>
</svg>

